<mxfile host="app.diagrams.net" modified="2023-10-23T14:42:15.852Z" agent="Mozilla/5.0 (Windows NT 10.0; Win64; x64) AppleWebKit/537.36 (KHTML, like Gecko) Chrome/118.0.0.0 Safari/537.36" etag="ODMWKSyu-Sk-fqnwlR50" version="22.0.6" type="github">
  <diagram name="第 1 页" id="j7MH4rCIaOm9uQedWXug">
    <mxGraphModel dx="1642" dy="1240" grid="0" gridSize="10" guides="1" tooltips="1" connect="1" arrows="1" fold="1" page="0" pageScale="1" pageWidth="827" pageHeight="1169" math="0" shadow="0">
      <root>
        <mxCell id="0" />
        <mxCell id="1" parent="0" />
        <mxCell id="MFGuYicjCAl2_DouRkva-3" value="1 制定项目章程" style="shape=step;perimeter=stepPerimeter;whiteSpace=wrap;html=1;fixedSize=1;fontSize=16;sketch=1;curveFitting=1;jiggle=2;" vertex="1" parent="1">
          <mxGeometry x="11" y="223" width="159" height="69" as="geometry" />
        </mxCell>
        <mxCell id="MFGuYicjCAl2_DouRkva-4" value="" style="shape=step;perimeter=stepPerimeter;whiteSpace=wrap;html=1;fixedSize=1;fontSize=16;sketch=1;curveFitting=1;jiggle=2;" vertex="1" parent="1">
          <mxGeometry x="108" y="-4" width="120" height="80" as="geometry" />
        </mxCell>
        <mxCell id="MFGuYicjCAl2_DouRkva-5" value="" style="shape=step;perimeter=stepPerimeter;whiteSpace=wrap;html=1;fixedSize=1;fontSize=16;sketch=1;curveFitting=1;jiggle=2;" vertex="1" parent="1">
          <mxGeometry x="302" y="-1" width="120" height="80" as="geometry" />
        </mxCell>
        <mxCell id="MFGuYicjCAl2_DouRkva-6" value="" style="shape=step;perimeter=stepPerimeter;whiteSpace=wrap;html=1;fixedSize=1;fontSize=16;sketch=1;curveFitting=1;jiggle=2;" vertex="1" parent="1">
          <mxGeometry x="496" y="-1" width="120" height="80" as="geometry" />
        </mxCell>
        <mxCell id="MFGuYicjCAl2_DouRkva-7" value="" style="shape=step;perimeter=stepPerimeter;whiteSpace=wrap;html=1;fixedSize=1;fontSize=16;sketch=1;curveFitting=1;jiggle=2;" vertex="1" parent="1">
          <mxGeometry x="690" y="-4" width="120" height="80" as="geometry" />
        </mxCell>
        <mxCell id="MFGuYicjCAl2_DouRkva-8" value="&lt;div data-mind-map-text=&quot;[{&amp;quot;paragraphProps&amp;quot;:{&amp;quot;type&amp;quot;:&amp;quot;paragraph&amp;quot;,&amp;quot;textAlign&amp;quot;:0,&amp;quot;lineSpacing&amp;quot;:1.4},&amp;quot;isComplete&amp;quot;:true,&amp;quot;textProps&amp;quot;:[{&amp;quot;type&amp;quot;:&amp;quot;text&amp;quot;,&amp;quot;text&amp;quot;:&amp;quot;1 制定项目章程&amp;quot;,&amp;quot;color&amp;quot;:&amp;quot;#1f1f1f&amp;quot;,&amp;quot;fontWeight&amp;quot;:400,&amp;quot;fontSize&amp;quot;:14,&amp;quot;fontFamily&amp;quot;:&amp;quot;\&amp;quot;Helvetica Neue\&amp;quot;, Helvetica, \&amp;quot;PingFang SC\&amp;quot;, \&amp;quot;Microsoft YaHei\&amp;quot;, \&amp;quot;Source Han Sans SC\&amp;quot;, \&amp;quot;Noto Sans CJK SC\&amp;quot;, \&amp;quot;WenQuanYi Micro Hei\&amp;quot;, sans-serif&amp;quot;,&amp;quot;italic&amp;quot;:false,&amp;quot;underline&amp;quot;:false,&amp;quot;strike&amp;quot;:false}]}]&quot;&gt;1 制定项目章程&lt;/div&gt;" style="rounded=1;whiteSpace=wrap;html=1;sketch=1;hachureGap=4;jiggle=2;curveFitting=1;fontFamily=Architects Daughter;fontSource=https%3A%2F%2Ffonts.googleapis.com%2Fcss%3Ffamily%3DArchitects%2BDaughter;fontSize=20;" vertex="1" parent="1">
          <mxGeometry x="393" y="468" width="140" height="50" as="geometry" />
        </mxCell>
        <mxCell id="MFGuYicjCAl2_DouRkva-12" style="edgeStyle=none;curved=1;rounded=0;sketch=1;hachureGap=4;jiggle=2;curveFitting=1;orthogonalLoop=1;jettySize=auto;html=1;entryX=0;entryY=0.5;entryDx=0;entryDy=0;fontFamily=Architects Daughter;fontSource=https%3A%2F%2Ffonts.googleapis.com%2Fcss%3Ffamily%3DArchitects%2BDaughter;fontSize=16;startSize=8;endSize=8;" edge="1" parent="1" source="MFGuYicjCAl2_DouRkva-9" target="MFGuYicjCAl2_DouRkva-3">
          <mxGeometry relative="1" as="geometry" />
        </mxCell>
        <mxCell id="MFGuYicjCAl2_DouRkva-9" value="项目工作说明书" style="shape=note;whiteSpace=wrap;html=1;backgroundOutline=1;darkOpacity=0.05;sketch=1;hachureGap=4;jiggle=2;curveFitting=1;fontFamily=Architects Daughter;fontSource=https%3A%2F%2Ffonts.googleapis.com%2Fcss%3Ffamily%3DArchitects%2BDaughter;fontSize=20;" vertex="1" parent="1">
          <mxGeometry x="-130" y="146" width="92" height="79" as="geometry" />
        </mxCell>
        <mxCell id="MFGuYicjCAl2_DouRkva-13" value="" style="edgeStyle=none;curved=1;rounded=0;sketch=1;hachureGap=4;jiggle=2;curveFitting=1;orthogonalLoop=1;jettySize=auto;html=1;fontFamily=Architects Daughter;fontSource=https%3A%2F%2Ffonts.googleapis.com%2Fcss%3Ffamily%3DArchitects%2BDaughter;fontSize=16;startSize=8;endSize=8;" edge="1" parent="1" source="MFGuYicjCAl2_DouRkva-10" target="MFGuYicjCAl2_DouRkva-3">
          <mxGeometry relative="1" as="geometry" />
        </mxCell>
        <mxCell id="MFGuYicjCAl2_DouRkva-10" value="商业论证" style="shape=note;whiteSpace=wrap;html=1;backgroundOutline=1;darkOpacity=0.05;sketch=1;hachureGap=4;jiggle=2;curveFitting=1;fontFamily=Architects Daughter;fontSource=https%3A%2F%2Ffonts.googleapis.com%2Fcss%3Ffamily%3DArchitects%2BDaughter;fontSize=20;" vertex="1" parent="1">
          <mxGeometry x="-130" y="236" width="92" height="79" as="geometry" />
        </mxCell>
        <mxCell id="MFGuYicjCAl2_DouRkva-14" style="edgeStyle=none;curved=1;rounded=0;sketch=1;hachureGap=4;jiggle=2;curveFitting=1;orthogonalLoop=1;jettySize=auto;html=1;fontFamily=Architects Daughter;fontSource=https%3A%2F%2Ffonts.googleapis.com%2Fcss%3Ffamily%3DArchitects%2BDaughter;fontSize=16;startSize=8;endSize=8;" edge="1" parent="1" source="MFGuYicjCAl2_DouRkva-11" target="MFGuYicjCAl2_DouRkva-3">
          <mxGeometry relative="1" as="geometry">
            <mxPoint x="80" y="289" as="targetPoint" />
          </mxGeometry>
        </mxCell>
        <mxCell id="MFGuYicjCAl2_DouRkva-11" value="协议" style="shape=note;whiteSpace=wrap;html=1;backgroundOutline=1;darkOpacity=0.05;sketch=1;hachureGap=4;jiggle=2;curveFitting=1;fontFamily=Architects Daughter;fontSource=https%3A%2F%2Ffonts.googleapis.com%2Fcss%3Ffamily%3DArchitects%2BDaughter;fontSize=20;" vertex="1" parent="1">
          <mxGeometry x="-132" y="332" width="92" height="79" as="geometry" />
        </mxCell>
        <mxCell id="MFGuYicjCAl2_DouRkva-15" value="项目章程" style="shape=note;whiteSpace=wrap;html=1;backgroundOutline=1;darkOpacity=0.05;sketch=1;hachureGap=4;jiggle=2;curveFitting=1;fontFamily=Architects Daughter;fontSource=https%3A%2F%2Ffonts.googleapis.com%2Fcss%3Ffamily%3DArchitects%2BDaughter;fontSize=20;" vertex="1" parent="1">
          <mxGeometry x="238" y="146" width="92" height="79" as="geometry" />
        </mxCell>
        <mxCell id="MFGuYicjCAl2_DouRkva-16" style="edgeStyle=none;curved=1;rounded=0;sketch=1;hachureGap=4;jiggle=2;curveFitting=1;orthogonalLoop=1;jettySize=auto;html=1;entryX=0;entryY=0.5;entryDx=0;entryDy=0;entryPerimeter=0;fontFamily=Architects Daughter;fontSource=https%3A%2F%2Ffonts.googleapis.com%2Fcss%3Ffamily%3DArchitects%2BDaughter;fontSize=16;startSize=8;endSize=8;exitX=1;exitY=0.25;exitDx=0;exitDy=0;" edge="1" parent="1" source="MFGuYicjCAl2_DouRkva-3" target="MFGuYicjCAl2_DouRkva-15">
          <mxGeometry relative="1" as="geometry" />
        </mxCell>
        <mxCell id="MFGuYicjCAl2_DouRkva-17" value="" style="shape=step;perimeter=stepPerimeter;whiteSpace=wrap;html=1;fixedSize=1;fontSize=16;sketch=1;curveFitting=1;jiggle=2;" vertex="1" parent="1">
          <mxGeometry x="-78" y="-8" width="120" height="80" as="geometry" />
        </mxCell>
      </root>
    </mxGraphModel>
  </diagram>
</mxfile>
